<svg xmlns="http://www.w3.org/2000/svg" viewBox="0 0 400 300" width="400" height="300">
  <defs>
    <pattern id="g6" width="20" height="20" patternUnits="userSpaceOnUse">
      <path d="M 20 0 L 0 0 0 20" fill="none" stroke="rgba(0,0,0,0.08)" stroke-width="1"/>
    </pattern>
  </defs>
  <rect width="400" height="300" fill="#1A1D24"/>
  <!-- Stone floor -->
  <rect y="200" width="400" height="100" fill="#2C2F38"/>
  <rect x="0" y="200" width="20" height="20" fill="#252830" rx="2"/>
  <rect x="20" y="200" width="20" height="20" fill="#2C2F38" rx="2"/>
  <rect x="40" y="200" width="20" height="20" fill="#252830" rx="2"/>
  <rect x="60" y="200" width="20" height="20" fill="#2C2F38" rx="2"/>
  <rect x="80" y="200" width="20" height="20" fill="#252830" rx="2"/>
  <rect x="100" y="200" width="20" height="20" fill="#2C2F38" rx="2"/>
  <rect x="120" y="200" width="20" height="20" fill="#252830" rx="2"/>
  <rect x="140" y="200" width="20" height="20" fill="#2C2F38" rx="2"/>
  <rect x="160" y="200" width="20" height="20" fill="#252830" rx="2"/>
  <rect x="180" y="200" width="20" height="20" fill="#2C2F38" rx="2"/>
  <rect x="200" y="200" width="20" height="20" fill="#252830" rx="2"/>
  <rect x="220" y="200" width="20" height="20" fill="#2C2F38" rx="2"/>
  <rect x="240" y="200" width="20" height="20" fill="#252830" rx="2"/>
  <rect x="260" y="200" width="20" height="20" fill="#2C2F38" rx="2"/>
  <rect x="280" y="200" width="20" height="20" fill="#252830" rx="2"/>
  <rect x="300" y="200" width="20" height="20" fill="#2C2F38" rx="2"/>
  <rect x="320" y="200" width="20" height="20" fill="#252830" rx="2"/>
  <rect x="340" y="200" width="20" height="20" fill="#2C2F38" rx="2"/>
  <rect x="360" y="200" width="20" height="20" fill="#252830" rx="2"/>
  <rect x="380" y="200" width="20" height="20" fill="#2C2F38" rx="2"/>
  <!-- Bookshelves left -->
  <rect x="20" y="60" width="60" height="140" fill="#6B4226"/>
  <rect x="25" y="65" width="50" height="30" fill="#8B6914"/>
  <rect x="30" y="68" width="10" height="24" fill="#C0392B"/>
  <rect x="42" y="70" width="8" height="22" fill="#2E86C1"/>
  <rect x="52" y="67" width="10" height="25" fill="#27AE60"/>
  <rect x="64" y="69" width="8" height="23" fill="#8E44AD"/>
  <rect x="25" y="100" width="50" height="30" fill="#8B6914"/>
  <rect x="30" y="103" width="10" height="24" fill="#E67E22"/>
  <rect x="42" y="105" width="8" height="22" fill="#1ABC9C"/>
  <rect x="52" y="102" width="10" height="25" fill="#9B59B6"/>
  <rect x="64" y="104" width="8" height="23" fill="#E74C3C"/>
  <!-- Bookshelves right -->
  <rect x="320" y="60" width="60" height="140" fill="#6B4226"/>
  <rect x="325" y="65" width="50" height="30" fill="#8B6914"/>
  <rect x="330" y="68" width="10" height="24" fill="#9B59B6"/>
  <rect x="342" y="70" width="8" height="22" fill="#C0392B"/>
  <rect x="352" y="67" width="10" height="25" fill="#2E86C1"/>
  <rect x="364" y="69" width="8" height="23" fill="#27AE60"/>
  <rect x="325" y="100" width="50" height="30" fill="#8B6914"/>
  <rect x="330" y="103" width="10" height="24" fill="#1ABC9C"/>
  <rect x="342" y="105" width="8" height="22" fill="#E67E22"/>
  <rect x="352" y="102" width="10" height="25" fill="#E74C3C"/>
  <rect x="364" y="104" width="8" height="23" fill="#9B59B6"/>
  <!-- Enchanting table -->
  <rect x="150" y="150" width="100" height="50" fill="#4A3728" stroke="#6B4226" stroke-width="3"/>
  <rect x="160" y="145" width="80" height="8" fill="#3A2718"/>
  <!-- Book on table -->
  <rect x="180" y="135" width="40" height="15" fill="#9B59B6" rx="2"/>
  <rect x="182" y="137" width="36" height="11" fill="#8E44AD" rx="1"/>
  <!-- Enchanting glow -->
  <rect x="170" y="165" width="60" height="30" fill="#9B59B6" opacity="0.3" rx="4"/>
  <rect x="185" y="172" width="30" height="16" fill="#9B59B6" opacity="0.5" rx="2"/>
  <!-- Floating runes -->
  <rect x="155" y="100" width="8" height="8" fill="#9B59B6" opacity="0.7" rx="1"/>
  <rect x="225" y="110" width="6" height="6" fill="#BB77DD" opacity="0.6" rx="1"/>
  <rect x="190" y="85" width="7" height="7" fill="#9B59B6" opacity="0.5" rx="1"/>
  <rect x="210" y="95" width="5" height="5" fill="#BB77DD" opacity="0.4" rx="1"/>
  <rect x="175" y="115" width="6" height="6" fill="#9B59B6" opacity="0.6" rx="1"/>
  <rect width="400" height="300" fill="url(#g6)"/>
  <rect y="268" width="400" height="32" fill="rgba(0,0,0,0.5)"/>
  <text x="200" y="290" font-family="monospace" font-size="14" fill="#fff" text-anchor="middle">Enchanting Table</text>
</svg>
