<svg xmlns="http://www.w3.org/2000/svg" viewBox="0 0 400 300" width="400" height="300">
  <defs>
    <pattern id="grid1" width="20" height="20" patternUnits="userSpaceOnUse">
      <path d="M 20 0 L 0 0 0 20" fill="none" stroke="rgba(0,0,0,0.08)" stroke-width="1"/>
    </pattern>
  </defs>
  <!-- Sky -->
  <rect width="400" height="180" fill="#87CEEB"/>
  <!-- Sun -->
  <rect x="310" y="30" width="50" height="50" fill="#FFF176" rx="4"/>
  <!-- Grass top -->
  <rect y="140" width="400" height="40" fill="#53A331"/>
  <rect x="0" y="140" width="20" height="20" fill="#4A9228"/>
  <rect x="40" y="140" width="20" height="20" fill="#5CB83A"/>
  <rect x="80" y="140" width="20" height="20" fill="#4A9228"/>
  <rect x="120" y="140" width="20" height="20" fill="#5CB83A"/>
  <rect x="160" y="140" width="20" height="20" fill="#4A9228"/>
  <rect x="200" y="140" width="20" height="20" fill="#5CB83A"/>
  <rect x="240" y="140" width="20" height="20" fill="#4A9228"/>
  <rect x="280" y="140" width="20" height="20" fill="#5CB83A"/>
  <rect x="320" y="140" width="20" height="20" fill="#4A9228"/>
  <rect x="360" y="140" width="20" height="20" fill="#5CB83A"/>
  <!-- Dirt -->
  <rect y="180" width="400" height="120" fill="#8B6914"/>
  <rect x="0" y="180" width="40" height="40" fill="#7D5C10" rx="2"/>
  <rect x="40" y="180" width="40" height="40" fill="#8B6914" rx="2"/>
  <rect x="80" y="180" width="40" height="40" fill="#7D5C10" rx="2"/>
  <rect x="120" y="180" width="40" height="40" fill="#8B6914" rx="2"/>
  <rect x="160" y="180" width="40" height="40" fill="#7D5C10" rx="2"/>
  <rect x="200" y="180" width="40" height="40" fill="#8B6914" rx="2"/>
  <rect x="240" y="180" width="40" height="40" fill="#7D5C10" rx="2"/>
  <rect x="280" y="180" width="40" height="40" fill="#8B6914" rx="2"/>
  <rect x="320" y="180" width="40" height="40" fill="#7D5C10" rx="2"/>
  <rect x="360" y="180" width="40" height="40" fill="#8B6914" rx="2"/>
  <rect x="20" y="220" width="40" height="40" fill="#8B6914" rx="2"/>
  <rect x="60" y="220" width="40" height="40" fill="#7D5C10" rx="2"/>
  <rect x="100" y="220" width="40" height="40" fill="#8B6914" rx="2"/>
  <rect x="140" y="220" width="40" height="40" fill="#7D5C10" rx="2"/>
  <rect x="180" y="220" width="40" height="40" fill="#8B6914" rx="2"/>
  <rect x="220" y="220" width="40" height="40" fill="#7D5C10" rx="2"/>
  <rect x="260" y="220" width="40" height="40" fill="#8B6914" rx="2"/>
  <rect x="300" y="220" width="40" height="40" fill="#7D5C10" rx="2"/>
  <rect x="340" y="220" width="40" height="40" fill="#8B6914" rx="2"/>
  <!-- Trees -->
  <rect x="60" y="100" width="20" height="60" fill="#6B4226"/>
  <rect x="40" y="70" width="60" height="40" fill="#3E8B1F" rx="4"/>
  <rect x="50" y="55" width="40" height="30" fill="#45A024" rx="4"/>
  <!-- Grid overlay -->
  <rect width="400" height="300" fill="url(#grid1)"/>
  <!-- Label -->
  <rect y="268" width="400" height="32" fill="rgba(0,0,0,0.5)" rx="0"/>
  <text x="200" y="290" font-family="monospace" font-size="14" fill="#fff" text-anchor="middle">Grass Block</text>
</svg>
