<svg xmlns="http://www.w3.org/2000/svg" viewBox="0 0 400 300" width="400" height="300">
  <defs>
    <pattern id="grid2" width="20" height="20" patternUnits="userSpaceOnUse">
      <path d="M 20 0 L 0 0 0 20" fill="none" stroke="rgba(0,0,0,0.1)" stroke-width="1"/>
    </pattern>
  </defs>
  <!-- Cave background -->
  <rect width="400" height="300" fill="#1A1D24"/>
  <!-- Stone walls -->
  <rect x="0" y="0" width="400" height="60" fill="#2C2F38"/>
  <rect x="0" y="0" width="20" height="20" fill="#252830" rx="2"/>
  <rect x="20" y="0" width="20" height="20" fill="#2C2F38" rx="2"/>
  <rect x="40" y="0" width="20" height="20" fill="#252830" rx="2"/>
  <rect x="60" y="0" width="20" height="20" fill="#2C2F38" rx="2"/>
  <rect x="80" y="0" width="20" height="20" fill="#252830" rx="2"/>
  <rect x="100" y="0" width="20" height="20" fill="#2C2F38" rx="2"/>
  <rect x="120" y="0" width="20" height="20" fill="#252830" rx="2"/>
  <rect x="140" y="0" width="20" height="20" fill="#2C2F38" rx="2"/>
  <rect x="160" y="0" width="20" height="20" fill="#252830" rx="2"/>
  <rect x="180" y="0" width="20" height="20" fill="#2C2F38" rx="2"/>
  <rect x="200" y="0" width="20" height="20" fill="#252830" rx="2"/>
  <rect x="220" y="0" width="20" height="20" fill="#2C2F38" rx="2"/>
  <rect x="240" y="0" width="20" height="20" fill="#252830" rx="2"/>
  <rect x="260" y="0" width="20" height="20" fill="#2C2F38" rx="2"/>
  <rect x="280" y="0" width="20" height="20" fill="#252830" rx="2"/>
  <rect x="300" y="0" width="20" height="20" fill="#2C2F38" rx="2"/>
  <rect x="320" y="0" width="20" height="20" fill="#252830" rx="2"/>
  <rect x="340" y="0" width="20" height="20" fill="#2C2F38" rx="2"/>
  <rect x="360" y="0" width="20" height="20" fill="#252830" rx="2"/>
  <rect x="380" y="0" width="20" height="20" fill="#2C2F38" rx="2"/>
  <!-- Floor stone -->
  <rect y="240" width="400" height="60" fill="#2C2F38"/>
  <rect x="0" y="240" width="20" height="20" fill="#252830" rx="2"/>
  <rect x="20" y="240" width="20" height="20" fill="#2C2F38" rx="2"/>
  <rect x="40" y="240" width="20" height="20" fill="#252830" rx="2"/>
  <rect x="60" y="240" width="20" height="20" fill="#2C2F38" rx="2"/>
  <rect x="80" y="240" width="20" height="20" fill="#252830" rx="2"/>
  <rect x="100" y="240" width="20" height="20" fill="#2C2F38" rx="2"/>
  <rect x="120" y="240" width="20" height="20" fill="#252830" rx="2"/>
  <rect x="140" y="240" width="20" height="20" fill="#2C2F38" rx="2"/>
  <rect x="160" y="240" width="20" height="20" fill="#252830" rx="2"/>
  <rect x="180" y="240" width="20" height="20" fill="#2C2F38" rx="2"/>
  <rect x="200" y="240" width="20" height="20" fill="#252830" rx="2"/>
  <rect x="220" y="240" width="20" height="20" fill="#2C2F38" rx="2"/>
  <rect x="240" y="240" width="20" height="20" fill="#252830" rx="2"/>
  <rect x="260" y="240" width="20" height="20" fill="#2C2F38" rx="2"/>
  <rect x="280" y="240" width="20" height="20" fill="#252830" rx="2"/>
  <rect x="300" y="240" width="20" height="20" fill="#2C2F38" rx="2"/>
  <rect x="320" y="240" width="20" height="20" fill="#252830" rx="2"/>
  <rect x="340" y="240" width="20" height="20" fill="#2C2F38" rx="2"/>
  <rect x="360" y="240" width="20" height="20" fill="#252830" rx="2"/>
  <rect x="380" y="240" width="20" height="20" fill="#2C2F38" rx="2"/>
  <!-- Diamond ore blocks -->
  <rect x="80" y="80" width="60" height="60" fill="#252830" stroke="#333" stroke-width="2"/>
  <rect x="95" y="95" width="12" height="12" fill="#1E6EE9" rx="1"/>
  <rect x="115" y="110" width="12" height="12" fill="#1E6EE9" rx="1"/>
  <rect x="250" y="100" width="60" height="60" fill="#252830" stroke="#333" stroke-width="2"/>
  <rect x="265" y="115" width="12" height="12" fill="#1E6EE9" rx="1"/>
  <rect x="285" y="100" width="12" height="12" fill="#1E6EE9" rx="1"/>
  <rect x="155" y="160" width="60" height="60" fill="#252830" stroke="#333" stroke-width="2"/>
  <rect x="170" y="175" width="12" height="12" fill="#1E6EE9" rx="1"/>
  <rect x="190" y="160" width="12" height="12" fill="#1E6EE9" rx="1"/>
  <!-- Diamond sparkle -->
  <rect x="97" y="97" width="4" height="4" fill="#6CB4FF"/>
  <rect x="267" y="117" width="4" height="4" fill="#6CB4FF"/>
  <rect x="172" y="177" width="4" height="4" fill="#6CB4FF"/>
  <!-- Grid overlay -->
  <rect width="400" height="300" fill="url(#grid2)"/>
  <!-- Label -->
  <rect y="268" width="400" height="32" fill="rgba(0,0,0,0.5)" rx="0"/>
  <text x="200" y="290" font-family="monospace" font-size="14" fill="#fff" text-anchor="middle">Diamond Cave</text>
</svg>
